<svg width="32" height="32" viewBox="0 0 32 32" fill="none" xmlns="http://www.w3.org/2000/svg">
<g id="person_outline_24px" filter="url(#filter0_d)">
<rect width="24" height="24" transform="translate(4)" fill="white"/>
<path id="icon/social/person_outline_24px" fill-rule="evenodd" clip-rule="evenodd" d="M16 4C13.79 4 12 5.79 12 8C12 10.21 13.79 12 16 12C18.21 12 20 10.21 20 8C20 5.79 18.21 4 16 4ZM18.1 8C18.1 6.84 17.16 5.9 16 5.9C14.84 5.9 13.9 6.84 13.9 8C13.9 9.16 14.84 10.1 16 10.1C17.16 10.1 18.1 9.16 18.1 8ZM22.1 17C22.1 16.36 18.97 14.9 16 14.9C13.03 14.9 9.9 16.36 9.9 17V18.1H22.1V17ZM8 17C8 14.34 13.33 13 16 13C18.67 13 24 14.34 24 17V20H8V17Z" fill="#343A40"/>
</g>
<defs>
<filter id="filter0_d" x="0" y="0" width="32" height="32" filterUnits="userSpaceOnUse" color-interpolation-filters="sRGB">
<feFlood flood-opacity="0" result="BackgroundImageFix"/>
<feColorMatrix in="SourceAlpha" type="matrix" values="0 0 0 0 0 0 0 0 0 0 0 0 0 0 0 0 0 0 127 0"/>
<feOffset dy="4"/>
<feGaussianBlur stdDeviation="2"/>
<feColorMatrix type="matrix" values="0 0 0 0 0 0 0 0 0 0 0 0 0 0 0 0 0 0 0.25 0"/>
<feBlend mode="normal" in2="BackgroundImageFix" result="effect1_dropShadow"/>
<feBlend mode="normal" in="SourceGraphic" in2="effect1_dropShadow" result="shape"/>
</filter>
</defs>
</svg>
